PathFileType	4	(X/Y/Z)	4_coords_data.trc
DataRate	CameraRate	NumFrames	NumMarkers	Units	OrigDataRate	OrigDataStartFrame	OrigNumFrames
30.0	30.0	6	21	m	30.0	41	51
Frame#	Time	THUMB_TIP	THUMB_IP	THUMB_MCP	THUMB_CMC	INDEX_TIP	INDEX_DIP	INDEX_PIP	INDEX_MCP	MIDDLE_TIP	MIDDLE_DIP	MIDDLE_PIP	MIDDLE_MCP	RING_TIP	RING_DIP	RING_PIP	RING_MCP	PINKY_TIP	PINKY_DIP	PINKY_PIP	PINKY_MCP	WRIST
X1	Y1	Z1	X2	Y2	Z2	X3	Y3	Z3	X4	Y4	Z4	X5	Y5	Z5	X6	Y6	Z6	X7	Y7	Z7	X8	Y8	Z8	X9	Y9	Z9	X10	Y10	Z10	X11	Y11	Z11	X12	Y12	Z12	X13	Y13	Z13	X14	Y14	Z14	X15	Y15	Z15	X16	Y16	Z16	X17	Y17	Z17	X18	Y18	Z18	X19	Y19	Z19	X20	Y20	Z20	X21	Y21	Z21
39	1.3333333333333275	0.5033140480023581	-0.01992857631529188	-0.16496475398307836	0.4928860822894261	-0.022588838080075835	-0.1446625240948926	0.47069906441871534	-0.026809041317294224	-0.12324416461893539	0.47122735240830405	-0.02839512637331154	-0.07866731809526195	0.5542595196013829	0.01754310101340162	-0.17389937390400023	0.5396598143068285	0.020826865177134612	-0.16369812406737994	0.5196067910333803	0.02333287442632115	-0.14874466265413083	0.4871666487780284	0.018053980597257824	-0.12166318292362083	0.5770227846276308	0.017108252895219334	-0.16001416261063572	0.5624653797030188	0.019358475931950836	-0.1494776329093609	0.5391881394628729	0.02347474387380366	-0.13242958389977022	0.5036762132134996	0.022695767457924565	-0.10532895271150117	0.5864893505593586	0.010004097585045502	-0.13545039040754026	0.5733774200965914	0.016120002222494212	-0.12469525256531844	0.5540053482077463	0.023295698539693155	-0.11078798137012158	0.5193648521752579	0.017664219658321323	-0.09071204268143696	0.5836463440220276	-0.008339302482952449	-0.11072449573119647	0.5744121044411952	0.00037341566519644154	-0.09924332149531362	0.5600359359096444	0.009236319536691129	-0.08676988041768396	0.5268682985374438	0.0060695638778999195	-0.07295818462231862	0.462283081001861	-0.023011742144276925	-0.05198982011943093
40	1.3666666666666607	0.49627299589214036	-0.02074911423710668	-0.1677821227037199	0.4878143719399094	-0.02322543842972946	-0.1465613899329652	0.46720938083323005	-0.026668837298948644	-0.12348765279046658	0.4700872069176092	-0.02846578552183654	-0.07900867917244875	0.5517204609809834	0.019451743119539233	-0.17776189223271754	0.5375305637531007	0.02187782861202414	-0.1667727646128705	0.5181314810562673	0.02324898579836665	-0.15084149499956723	0.48701244007193767	0.016646441429750025	-0.12252810964782823	0.5762452068169654	0.020400000953403663	-0.16329028783411836	0.561778418330468	0.021134076200321594	-0.15241953972652217	0.5386750964420789	0.02309732473923576	-0.13476191466266008	0.5039765467329643	0.020742186773199833	-0.10671531247549565	0.5872200062790767	0.013896082337343962	-0.13809353549377545	0.5735400989363021	0.018144927797584143	-0.12714787665804977	0.5536951098208979	0.02306600052696206	-0.1129303019984369	0.5196187824637956	0.015466796979621611	-0.09253969501145148	0.5862376057660325	-0.005860318079860871	-0.11177753944729713	0.5756958856514673	0.001546002532899271	-0.10050728869555364	0.5602007702766909	0.008827112116305269	-0.08835414664270147	0.5270367807237766	0.004092056017280354	-0.07498954819481357	0.4622830810018609	-0.023011742144276925	-0.05198982011943093
41	1.3999999999999937	0.4894450733842032	-0.021101960934200914	-0.17001074398730354	0.4829771370288062	-0.02349146027393545	-0.14809143532557933	0.4640264203379696	-0.026309318554146643	-0.12356084194473549	0.46902862887724417	-0.028488727015087756	-0.07928762104891646	0.5493393630499175	0.020867350833555398	-0.1810375773090932	0.5355725727999416	0.022547524266011143	-0.1693905818403021	0.5168189496793865	0.02293788891797821	-0.15265262891018916	0.4869178423343551	0.015282233096293507	-0.12331066565820459	0.5753626346987895	0.023202870408632448	-0.16596534562526943	0.5610543553367195	0.022588831069414894	-0.15487949440008814	0.5381986629154151	0.02259391245046649	-0.13679561074302204	0.5042587701989989	0.018822853342479684	-0.10798570417249964	0.5875458396206897	0.017343522371261466	-0.14016625001874217	0.5734843871951276	0.01983514346306947	-0.12916318771688662	0.553348043543637	0.022638591294694033	-0.11478096523201198	0.5198162099266203	0.013330525066873045	-0.09419706687967788	0.5884132686632656	-0.0034386764861911168	-0.11229155982060135	0.5767358420194617	0.002637257405219584	-0.10134986277097568	0.5602815041391929	0.008349798599776026	-0.08962665258679625	0.5271282171936896	0.0021778803566371296	-0.07683405938177579	0.4622830810018609	-0.023011742144276925	-0.05198982011943093
43	1.433333333333334	0.4834601097582748	-0.020867942314512944	-0.17161416066900165	0.4788771355307674	-0.023356243508522834	-0.1492354943906486	0.4614678581518511	-0.025765929832918255	-0.12354638243709948	0.46806562760895165	-0.028468725710559695	-0.07951168779032397	0.5476045606429429	0.02121595977433588	-0.18345616025230105	0.5342052779745398	0.022423103040315917	-0.17133172092061938	0.5159722103556384	0.022216923428889257	-0.1540250006024192	0.4869345545852246	0.014010539871061156	-0.12397328001505908	0.5747109534668919	0.025115853627158402	-0.16781834474397966	0.5605662474039264	0.02342841259235351	-0.15663443517950443	0.5379409954268154	0.021888947998670916	-0.13832767217407294	0.5045239035759288	0.017054749412269143	-0.10906888858253178	0.5876919948849628	0.019924183125757056	-0.14155568061444507	0.5734240616987989	0.020901551987995592	-0.13057976002880434	0.5531509324180438	0.02193691673379805	-0.11615380328379271	0.5199836263009194	0.011374024250204284	-0.09558499336894838	0.5902029275614042	-0.0012878031103978893	-0.1121001483338342	0.5776122278726159	0.0035492908569747517	-0.10156085028806516	0.560392766169186	0.007825989094904506	-0.0903353431803306	0.5271852791812024	0.0003967561817568299	-0.07837905791838118	0.4622830810018608	-0.023011742144276925	-0.051989820119430985
44	1.4666666666666672	0.4780355210521756	-0.02034760405262226	-0.17274398035572547	0.4752156335585823	-0.023022645669001585	-0.15009685279229884	0.4592555141220226	-0.025144584268107728	-0.1234586853599779	0.46720762458495346	-0.028420902753100608	-0.07968746563319573	0.546146346072377	0.02123361059751816	-0.18544295954518125	0.533078982021801	0.02206657145776747	-0.17293095838729267	0.5153015991213188	0.02140745897826779	-0.1551675110600138	0.4869736442137752	0.012865427987393763	-0.12453751316077877	0.574113177611244	0.026512596038239744	-0.16924846776045388	0.5601360202531817	0.023944267749647863	-0.15802159099129043	0.5377397806573295	0.021132347763486603	-0.13958491265823347	0.5047504884031006	0.01545454857816908	-0.10999408445123182	0.5876607338984838	0.0218979940474322	-0.14257040810275562	0.5732970757269362	0.0215933082826264	-0.13168039017275845	0.5529845841963644	0.021131875626140828	-0.11728005174881939	0.520107024707166	0.009612128661038	-0.09675976067158992	0.5915366544603302	0.00046236631575891085	-0.11165807184474558	0.5782440109228798	0.004209067560024371	-0.10154531467508626	0.5604482664245967	0.007237454624123729	-0.09082373043851849	0.5271969554745097	-0.001206954565579288	-0.07969153727915024	0.4622830810018609	-0.023011742144276925	-0.051989820119430985
45	1.5000000000000004	0.47333665440008754	-0.019581294827328843	-0.1734647584759299	0.472081946467902	-0.022523995045957146	-0.15071028147846416	0.4574166064484564	-0.024480144809130078	-0.12332559086092959	0.4664823080002839	-0.02835092384756288	-0.07982018746079056	0.5449857430359484	0.020998155037314392	-0.18702080826923195	0.5322000616755149	0.02154627526837305	-0.17420574227791663	0.5147986503718986	0.02056499271502621	-0.15608840797640106	0.4870189324320765	0.011886642871620334	-0.12499806206035524	0.5736204950563646	0.02738239956568389	-0.17032402268214242	0.5597933157963966	0.02413643183522507	-0.1590869052935267	0.5375971984619475	0.02035236723306444	-0.14058223614322707	0.5049334278467594	0.014077317899949038	-0.11075188639560685	0.587556144188545	0.023214422496525167	-0.1433078866680204	0.5731667837389043	0.021889375168836267	-0.13252871437003289	0.5528724871929488	0.020248623654767428	-0.11818892911453116	0.5201943704056198	0.008103193848426837	-0.0977108908282856	0.592485920881917	0.0017011525665309168	-0.11112725747062091	0.5786820038578248	0.004556530948880533	-0.10141650625943305	0.5604790431665311	0.006586102391141657	-0.09115273108496735	0.5271804305957248	-0.0025763951280889374	-0.08075395754817749	0.462283081001861	-0.023011742144276925	-0.051989820119430985
